<svg width="1198" height="629" viewBox="0 0 1198 629" fill="none" xmlns="http://www.w3.org/2000/svg">
<path fill-rule="evenodd" clip-rule="evenodd" d="M135.424 253.994L125.832 244.401C124.056 242.625 121.176 242.625 119.4 244.401L35.0477 328.754C33.2716 330.53 33.2716 333.41 35.0477 335.186L84.8156 384.954C86.5918 386.73 89.4714 386.73 91.2475 384.954L175.6 300.601C177.376 298.825 177.376 295.945 175.6 294.169L166.008 284.577C157.446 287.033 148.14 284.716 141.713 278.289C135.285 271.861 132.968 262.555 135.424 253.994Z" fill="#2677BD"/>
<path fill-rule="evenodd" clip-rule="evenodd" d="M43.3096 253.884L53.0421 244.152C54.8765 242.318 57.8505 242.318 59.6849 244.152L86.4141 270.881L30.2142 327.081L3.48505 300.352C1.6507 298.517 1.6507 295.543 3.48505 293.709L13.2175 283.977C21.633 286.153 30.6286 283.797 36.8796 277.546C43.1306 271.295 45.4863 262.3 43.3096 253.884Z" fill="#2677BD"/>
<path d="M244.944 290.429H219.907V275.675H288.088V290.429H263.051V353.915H244.944V290.429ZM295.291 293.782H312.727V353.915H295.291V293.782ZM304.009 285.399C300.805 285.399 298.197 284.468 296.185 282.605C294.173 280.742 293.167 278.432 293.167 275.675C293.167 272.918 294.173 270.608 296.185 268.746C298.197 266.883 300.805 265.951 304.009 265.951C307.213 265.951 309.821 266.845 311.833 268.634C313.845 270.422 314.851 272.658 314.851 275.34C314.851 278.246 313.845 280.668 311.833 282.605C309.821 284.468 307.213 285.399 304.009 285.399ZM357.97 354.809C351.562 354.809 345.787 353.505 340.645 350.897C335.578 348.215 331.592 344.526 328.686 339.832C325.854 335.138 324.439 329.81 324.439 323.849C324.439 317.888 325.854 312.56 328.686 307.865C331.592 303.171 335.578 299.52 340.645 296.912C345.787 294.229 351.562 292.888 357.97 292.888C364.304 292.888 369.818 294.229 374.512 296.912C379.281 299.52 382.746 303.283 384.907 308.201L371.383 315.466C368.253 309.952 363.745 307.195 357.858 307.195C353.313 307.195 349.55 308.685 346.569 311.666C343.589 314.646 342.098 318.707 342.098 323.849C342.098 328.99 343.589 333.051 346.569 336.032C349.55 339.012 353.313 340.503 357.858 340.503C363.819 340.503 368.327 337.746 371.383 332.232L384.907 339.609C382.746 344.377 379.281 348.103 374.512 350.786C369.818 353.468 364.304 354.809 357.97 354.809ZM420.329 330.332L411.946 338.603V353.915H394.51V270.981H411.946V317.925L437.43 293.782H458.219L433.182 319.266L460.455 353.915H439.33L420.329 330.332ZM524.58 324.072C524.58 324.296 524.468 325.861 524.245 328.767H478.754C479.573 332.492 481.511 335.436 484.566 337.597C487.621 339.758 491.421 340.838 495.967 340.838C499.096 340.838 501.853 340.391 504.238 339.497C506.697 338.528 508.969 337.038 511.056 335.026L520.333 345.085C514.67 351.568 506.399 354.809 495.519 354.809C488.739 354.809 482.74 353.505 477.524 350.897C472.308 348.215 468.284 344.526 465.453 339.832C462.621 335.138 461.206 329.81 461.206 323.849C461.206 317.962 462.584 312.672 465.341 307.977C468.173 303.208 472.01 299.52 476.854 296.912C481.772 294.229 487.248 292.888 493.284 292.888C499.171 292.888 504.498 294.155 509.267 296.688C514.036 299.222 517.762 302.873 520.444 307.642C523.201 312.336 524.58 317.813 524.58 324.072ZM493.396 306.077C489.447 306.077 486.131 307.195 483.448 309.43C480.766 311.666 479.126 314.721 478.53 318.596H508.15C507.553 314.795 505.914 311.777 503.232 309.542C500.549 307.232 497.271 306.077 493.396 306.077ZM574.973 351.009C573.259 352.276 571.136 353.245 568.602 353.915C566.143 354.511 563.535 354.809 560.778 354.809C553.625 354.809 548.073 352.984 544.124 349.333C540.249 345.681 538.312 340.316 538.312 333.238V308.536H529.035V295.124H538.312V280.482H555.748V295.124H570.726V308.536H555.748V333.014C555.748 335.548 556.382 337.522 557.649 338.938C558.99 340.279 560.853 340.95 563.237 340.95C565.994 340.95 568.341 340.205 570.279 338.714L574.973 351.009ZM670.512 313.566H687.054V345.309C682.807 348.513 677.889 350.972 672.301 352.686C666.712 354.4 661.086 355.257 655.423 355.257C647.301 355.257 639.999 353.543 633.516 350.115C627.033 346.613 621.929 341.807 618.203 335.697C614.552 329.512 612.727 322.545 612.727 314.795C612.727 307.046 614.552 300.116 618.203 294.006C621.929 287.821 627.071 283.015 633.628 279.587C640.185 276.085 647.562 274.334 655.758 274.334C662.614 274.334 668.836 275.489 674.424 277.799C680.013 280.109 684.707 283.462 688.507 287.858L676.883 298.588C671.295 292.702 664.551 289.759 656.653 289.759C651.66 289.759 647.227 290.802 643.352 292.888C639.477 294.975 636.459 297.918 634.298 301.718C632.137 305.518 631.057 309.877 631.057 314.795C631.057 319.639 632.137 323.961 634.298 327.761C636.459 331.561 639.44 334.542 643.24 336.702C647.115 338.789 651.511 339.832 656.429 339.832C661.645 339.832 666.339 338.714 670.512 336.479V313.566ZM761.548 324.072C761.548 324.296 761.437 325.861 761.213 328.767H715.722C716.542 332.492 718.479 335.436 721.534 337.597C724.589 339.758 728.389 340.838 732.935 340.838C736.064 340.838 738.821 340.391 741.206 339.497C743.665 338.528 745.938 337.038 748.024 335.026L757.301 345.085C751.638 351.568 743.367 354.809 732.488 354.809C725.707 354.809 719.709 353.505 714.493 350.897C709.277 348.215 705.253 344.526 702.421 339.832C699.59 335.138 698.174 329.81 698.174 323.849C698.174 317.962 699.552 312.672 702.309 307.977C705.141 303.208 708.979 299.52 713.822 296.912C718.74 294.229 724.217 292.888 730.252 292.888C736.139 292.888 741.467 294.155 746.236 296.688C751.005 299.222 754.73 302.873 757.413 307.642C760.17 312.336 761.548 317.813 761.548 324.072ZM730.364 306.077C726.415 306.077 723.099 307.195 720.416 309.43C717.734 311.666 716.095 314.721 715.498 318.596H745.118C744.522 314.795 742.882 311.777 740.2 309.542C737.517 307.232 734.239 306.077 730.364 306.077ZM809.706 292.888C817.157 292.888 823.156 295.124 827.701 299.594C832.321 304.065 834.631 310.697 834.631 319.49V353.915H817.195V322.172C817.195 317.403 816.151 313.864 814.065 311.554C811.979 309.169 808.961 307.977 805.012 307.977C800.615 307.977 797.113 309.356 794.505 312.113C791.897 314.795 790.593 318.819 790.593 324.184V353.915H773.157V293.782H789.811V300.824C792.121 298.29 794.989 296.353 798.417 295.012C801.845 293.596 805.608 292.888 809.706 292.888ZM909.995 324.072C909.995 324.296 909.883 325.861 909.659 328.767H864.168C864.988 332.492 866.925 335.436 869.98 337.597C873.036 339.758 876.836 340.838 881.381 340.838C884.511 340.838 887.268 340.391 889.652 339.497C892.111 338.528 894.384 337.038 896.47 335.026L905.747 345.085C900.084 351.568 891.813 354.809 880.934 354.809C874.153 354.809 868.155 353.505 862.939 350.897C857.723 348.215 853.699 344.526 850.868 339.832C848.036 335.138 846.62 329.81 846.62 323.849C846.62 317.962 847.999 312.672 850.756 307.977C853.587 303.208 857.425 299.52 862.268 296.912C867.186 294.229 872.663 292.888 878.699 292.888C884.585 292.888 889.913 294.155 894.682 296.688C899.451 299.222 903.177 302.873 905.859 307.642C908.616 312.336 909.995 317.813 909.995 324.072ZM878.81 306.077C874.861 306.077 871.545 307.195 868.863 309.43C866.18 311.666 864.541 314.721 863.945 318.596H893.564C892.968 314.795 891.329 311.777 888.646 309.542C885.964 307.232 882.685 306.077 878.81 306.077ZM938.257 301.718C940.343 298.812 943.138 296.614 946.64 295.124C950.217 293.633 954.315 292.888 958.935 292.888V308.983C956.997 308.834 955.693 308.76 955.023 308.76C950.03 308.76 946.118 310.175 943.287 313.007C940.455 315.764 939.039 319.937 939.039 325.525V353.915H921.603V293.782H938.257V301.718ZM993.229 292.888C1002.54 292.888 1009.7 295.124 1014.69 299.594C1019.68 303.991 1022.18 310.66 1022.18 319.601V353.915H1005.86V346.427C1002.58 352.015 996.471 354.809 987.529 354.809C982.909 354.809 978.885 354.027 975.458 352.462C972.105 350.897 969.534 348.737 967.745 345.98C965.957 343.222 965.063 340.093 965.063 336.591C965.063 331.002 967.149 326.606 971.322 323.402C975.569 320.198 982.089 318.596 990.882 318.596H1004.74C1004.74 314.795 1003.59 311.889 1001.28 309.877C998.967 307.791 995.502 306.748 990.882 306.748C987.678 306.748 984.511 307.269 981.382 308.313C978.327 309.281 975.719 310.623 973.558 312.336L967.298 300.153C970.577 297.843 974.489 296.055 979.034 294.788C983.654 293.522 988.386 292.888 993.229 292.888ZM991.888 343.073C994.869 343.073 997.514 342.403 999.824 341.062C1002.13 339.646 1003.77 337.597 1004.74 334.914V328.767H992.782C985.629 328.767 982.052 331.114 982.052 335.808C982.052 338.044 982.909 339.832 984.623 341.173C986.411 342.44 988.833 343.073 991.888 343.073ZM1076.74 351.009C1075.03 352.276 1072.91 353.245 1070.37 353.915C1067.91 354.511 1065.31 354.809 1062.55 354.809C1055.4 354.809 1049.84 352.984 1045.89 349.333C1042.02 345.681 1040.08 340.316 1040.08 333.238V308.536H1030.81V295.124H1040.08V280.482H1057.52V295.124H1072.5V308.536H1057.52V333.014C1057.52 335.548 1058.15 337.522 1059.42 338.938C1060.76 340.279 1062.62 340.95 1065.01 340.95C1067.76 340.95 1070.11 340.205 1072.05 338.714L1076.74 351.009ZM1113.29 354.809C1106.96 354.809 1101.26 353.505 1096.19 350.897C1091.2 348.215 1087.28 344.526 1084.45 339.832C1081.62 335.138 1080.2 329.81 1080.2 323.849C1080.2 317.888 1081.62 312.56 1084.45 307.865C1087.28 303.171 1091.2 299.52 1096.19 296.912C1101.26 294.229 1106.96 292.888 1113.29 292.888C1119.62 292.888 1125.29 294.229 1130.28 296.912C1135.27 299.52 1139.18 303.171 1142.01 307.865C1144.85 312.56 1146.26 317.888 1146.26 323.849C1146.26 329.81 1144.85 335.138 1142.01 339.832C1139.18 344.526 1135.27 348.215 1130.28 350.897C1125.29 353.505 1119.62 354.809 1113.29 354.809ZM1113.29 340.503C1117.76 340.503 1121.41 339.012 1124.24 336.032C1127.15 332.977 1128.6 328.916 1128.6 323.849C1128.6 318.782 1127.15 314.758 1124.24 311.777C1121.41 308.722 1117.76 307.195 1113.29 307.195C1108.82 307.195 1105.13 308.722 1102.22 311.777C1099.32 314.758 1097.86 318.782 1097.86 323.849C1097.86 328.916 1099.32 332.977 1102.22 336.032C1105.13 339.012 1108.82 340.503 1113.29 340.503ZM1174.57 301.718C1176.66 298.812 1179.45 296.614 1182.95 295.124C1186.53 293.633 1190.63 292.888 1195.25 292.888V308.983C1193.31 308.834 1192.01 308.76 1191.34 308.76C1186.34 308.76 1182.43 310.175 1179.6 313.007C1176.77 315.764 1175.35 319.937 1175.35 325.525V353.915H1157.92V293.782H1174.57V301.718Z" fill="#2677BD"/>
</svg>
